<?xml version="1.0" encoding="UTF-8" standalone="no"?>
<!-- Created with Inkscape (http://www.inkscape.org/) -->
<svg
   xmlns:dc="http://purl.org/dc/elements/1.1/"
   xmlns:cc="http://creativecommons.org/ns#"
   xmlns:rdf="http://www.w3.org/1999/02/22-rdf-syntax-ns#"
   xmlns:svg="http://www.w3.org/2000/svg"
   xmlns="http://www.w3.org/2000/svg"
   xmlns:sodipodi="http://sodipodi.sourceforge.net/DTD/sodipodi-0.dtd"
   xmlns:inkscape="http://www.inkscape.org/namespaces/inkscape"
   width="653.64404"
   height="706.68225"
   id="svg2"
   sodipodi:version="0.32"
   inkscape:version="0.46"
   sodipodi:docname="sprachkomplexitaeten-wimo-blatt4.svg"
   inkscape:output_extension="org.inkscape.output.svg.inkscape"
   version="1.0">
  <defs
     id="defs4">
    <inkscape:perspective
       sodipodi:type="inkscape:persp3d"
       inkscape:vp_x="0 : 526.18109 : 1"
       inkscape:vp_y="0 : 1000 : 0"
       inkscape:vp_z="744.09448 : 526.18109 : 1"
       inkscape:persp3d-origin="372.04724 : 350.78739 : 1"
       id="perspective10" />
  </defs>
  <sodipodi:namedview
     id="base"
     pagecolor="#ffffff"
     bordercolor="#666666"
     borderopacity="1.0"
     inkscape:pageopacity="0.0"
     inkscape:pageshadow="2"
     inkscape:zoom="0.87885424"
     inkscape:cx="387.62482"
     inkscape:cy="569.67168"
     inkscape:document-units="px"
     inkscape:current-layer="layer1"
     showgrid="false"
     inkscape:window-width="1280"
     inkscape:window-height="948"
     inkscape:window-x="0"
     inkscape:window-y="33" />
  <metadata
     id="metadata7">
    <rdf:RDF>
      <cc:Work
         rdf:about="">
        <dc:format>image/svg+xml</dc:format>
        <dc:type
           rdf:resource="http://purl.org/dc/dcmitype/StillImage" />
      </cc:Work>
    </rdf:RDF>
  </metadata>
  <g
     inkscape:label="Ebene 1"
     inkscape:groupmode="layer"
     id="layer1"
     transform="translate(-19.356884,-206.11958)">
    <text
       xml:space="preserve"
       style="font-size:18px;font-style:normal;font-variant:normal;font-weight:normal;font-stretch:normal;fill:#000000;fill-opacity:1;stroke:none;stroke-width:1px;stroke-linecap:butt;stroke-linejoin:miter;stroke-opacity:1;font-family:Arial;-inkscape-font-specification:Arial"
       x="160"
       y="898.07648"
       id="text2383"><tspan
         sodipodi:role="line"
         id="tspan2385"
         x="160"
         y="898.07648">FL^-</tspan></text>
    <text
       xml:space="preserve"
       style="font-size:18px;font-style:normal;font-variant:normal;font-weight:normal;font-stretch:normal;fill:#000000;fill-opacity:1;stroke:none;stroke-width:1px;stroke-linecap:butt;stroke-linejoin:miter;stroke-opacity:1;font-family:Arial;-inkscape-font-specification:Arial"
       x="224.15549"
       y="804.31195"
       id="text2387"><tspan
         sodipodi:role="line"
         id="tspan2389"
         x="224.15549"
         y="804.31195">AL</tspan></text>
    <text
       xml:space="preserve"
       style="font-size:18px;font-style:normal;font-variant:normal;font-weight:normal;font-stretch:normal;fill:#000000;fill-opacity:1;stroke:none;stroke-width:1px;stroke-linecap:butt;stroke-linejoin:miter;stroke-opacity:1;font-family:Arial;-inkscape-font-specification:Arial"
       x="324.28586"
       y="744.00616"
       id="text2391"><tspan
         sodipodi:role="line"
         id="tspan2393"
         x="324.28586"
         y="744.00616">ALC</tspan></text>
    <text
       xml:space="preserve"
       style="font-size:18px;font-style:normal;font-variant:normal;font-weight:normal;font-stretch:normal;fill:#000000;fill-opacity:1;stroke:none;stroke-width:1px;stroke-linecap:butt;stroke-linejoin:miter;stroke-opacity:1;font-family:Arial;-inkscape-font-specification:Arial"
       x="490.41125"
       y="688.25177"
       id="text2395"><tspan
         sodipodi:role="line"
         id="tspan2397"
         x="490.41125"
         y="688.25177">S</tspan></text>
    <text
       xml:space="preserve"
       style="font-size:18px;font-style:normal;font-variant:normal;font-weight:normal;font-stretch:normal;fill:#000000;fill-opacity:1;stroke:none;stroke-width:1px;stroke-linecap:butt;stroke-linejoin:miter;stroke-opacity:1;font-family:Arial;-inkscape-font-specification:Arial"
       x="405.07285"
       y="569.91583"
       id="text2399"><tspan
         sodipodi:role="line"
         id="tspan2401"
         x="405.07285"
         y="569.91583">SH</tspan></text>
    <text
       xml:space="preserve"
       style="font-size:18px;font-style:normal;font-variant:normal;font-weight:normal;font-stretch:normal;fill:#000000;fill-opacity:1;stroke:none;stroke-width:1px;stroke-linecap:butt;stroke-linejoin:miter;stroke-opacity:1;font-family:Arial;-inkscape-font-specification:Arial"
       x="550.71704"
       y="556.26172"
       id="text2403"><tspan
         sodipodi:role="line"
         id="tspan2405"
         x="550.71704"
         y="556.26172">SI</tspan></text>
    <text
       xml:space="preserve"
       style="font-size:18px;font-style:normal;font-variant:normal;font-weight:normal;font-stretch:normal;fill:#000000;fill-opacity:1;stroke:none;stroke-width:1px;stroke-linecap:butt;stroke-linejoin:miter;stroke-opacity:1;font-family:Arial;-inkscape-font-specification:Arial"
       x="464.24081"
       y="444.7529"
       id="text2407"><tspan
         sodipodi:role="line"
         id="tspan2409"
         x="464.24081"
         y="444.7529">SHI</tspan></text>
    <text
       xml:space="preserve"
       style="font-size:18px;font-style:normal;font-variant:normal;font-weight:normal;font-stretch:normal;fill:#000000;fill-opacity:1;stroke:none;stroke-width:1px;stroke-linecap:butt;stroke-linejoin:miter;stroke-opacity:1;font-family:Arial;-inkscape-font-specification:Arial"
       x="380.04028"
       y="342.34683"
       id="text2411"><tspan
         sodipodi:role="line"
         id="tspan2413"
         x="380.04028"
         y="342.34683">SHIN</tspan></text>
    <text
       xml:space="preserve"
       style="font-size:18px;font-style:normal;font-variant:normal;font-weight:normal;font-stretch:normal;fill:#000000;fill-opacity:1;stroke:none;stroke-width:1px;stroke-linecap:butt;stroke-linejoin:miter;stroke-opacity:1;font-family:Arial;-inkscape-font-specification:Arial"
       x="575.74963"
       y="326.41699"
       id="text2415"><tspan
         sodipodi:role="line"
         id="tspan2417"
         x="575.74963"
         y="326.41699">SHIF</tspan></text>
    <text
       xml:space="preserve"
       style="font-size:18px;font-style:normal;font-variant:normal;font-weight:normal;font-stretch:normal;fill:#000000;fill-opacity:1;stroke:none;stroke-width:1px;stroke-linecap:butt;stroke-linejoin:miter;stroke-opacity:1;font-family:Arial;-inkscape-font-specification:Arial"
       x="182.05522"
       y="277.48965"
       id="text2419"><tspan
         sodipodi:role="line"
         id="tspan2421"
         x="182.05522"
         y="277.48965">L_1</tspan></text>
    <path
       style="opacity:1;fill:#4e9a06;fill-opacity:1;stroke:none;stroke-width:5;stroke-linecap:butt;stroke-miterlimit:4;stroke-dasharray:5, 5;stroke-dashoffset:0;stroke-opacity:1"
       id="path2423"
       d="M 62.491601,258.96941 C 67.00355,264.14485 72.450694,268.3989 77.78869,272.67896 C 85.420028,279.60727 94.457915,284.40825 103.78425,288.60122 C 113.37921,292.55285 123.03442,296.40684 132.85133,299.77667 C 140.27673,302.46072 147.82434,304.73218 155.53257,306.43922 C 162.93648,307.77881 170.25735,309.51339 177.67628,310.77758 C 184.8434,311.95251 192.06989,312.39553 199.31706,312.07811 C 205.67322,311.46388 211.67703,309.18147 217.72487,307.28586 C 226.90983,303.56429 236.07869,299.82596 245.35921,296.34767 C 249.19865,294.84122 253.04318,293.38009 256.93623,292.01977 C 258.27541,291.55183 259.6529,291.18026 260.95117,290.60856 C 262.33138,290.00077 266.2433,287.71638 264.9494,288.49111 C 261.67403,290.45227 258.31881,292.27688 255.00352,294.16977 C 263.65664,288.83213 271.93483,282.89744 280.05127,276.78179 C 281.55561,275.61997 283.00905,274.38906 284.5643,273.29631 C 287.74936,271.05842 292.47284,268.29916 295.8214,266.40822 C 302.37963,262.70478 308.92325,258.97371 315.54312,255.38162 C 320.08419,252.91754 324.79349,250.77679 329.40311,248.44344 C 324.93668,251.59866 346.44372,239.00573 342.28479,241.54206 C 339.6637,243.14054 337.07041,244.81267 334.29116,246.11694 C 332.50728,246.95409 337.63779,244.03467 339.28335,242.95059 C 343.31433,240.29504 343.43773,240.10317 347.09005,237.30252 C 350.88413,234.43791 354.3548,231.19603 357.40949,227.55903 C 358.78449,225.71127 360.33665,224.04212 362.13943,222.60957 C 368.76027,218.00479 376.00709,214.21419 382.94725,210.20717 C 351.99464,228.0457 379.93517,211.91716 385.23669,208.97871 C 389.73919,206.48314 376.31002,214.10865 371.8373,216.65721 C 369.47658,218.00236 373.95062,215.30852 374.38301,214.98836 C 394.1615,203.47303 394.693,203.19254 375.90611,214.02361 L 391.6311,207.85255 C 371.94941,219.39724 371.42221,219.69293 390.08311,208.79701 C 389.20182,209.38966 388.4542,210.04006 387.53169,210.57413 C 336.46383,240.13856 421.19756,191.11218 369.86849,220.76785 C 394.84971,206.26564 383.34667,212.86175 377.77568,216.37554 C 375.94393,217.71808 374.12216,219.09918 372.8609,221.03243 C 369.53577,224.72942 366.24027,228.45592 362.0985,231.30639 C 348.36468,242.05928 332.76104,250.1229 317.31772,258.12096 C 314.94383,259.32425 312.57143,260.53047 310.19606,261.73082 C 307.9126,262.88473 302.59188,267.63 303.34124,265.18375 C 304.16112,262.5073 308.30596,262.52786 310.48873,260.77541 C 312.24208,259.36773 306.57502,262.99104 304.64193,264.13949 C 302.86438,265.19554 301.06135,266.21626 299.35797,267.3882 C 297.7887,268.46786 296.34469,269.71913 294.83805,270.88459 C 286.86465,277.08476 278.58716,282.9026 270.09564,288.37257 C 264.17572,291.77702 258.30299,295.26486 252.33587,298.5859 C 246.17333,302.0157 239.08449,303.43483 232.66273,306.28329 C 223.28268,309.76264 214.08227,313.66982 204.77239,317.3273 C 198.66922,319.34289 192.49055,321.35593 186.033,321.79391 C 178.7764,321.93532 171.54888,321.3071 164.3919,320.08353 C 156.91838,318.75368 149.47911,317.23388 142.02742,315.78783 C 134.36598,313.92445 126.89985,311.44629 119.46789,308.8237 C 109.7184,305.29617 100.08729,301.43061 90.536305,297.40012 C 86.267298,295.50169 84.292021,294.72902 80.232044,292.521 C 74.460122,289.38194 69.123798,285.47015 64.067025,281.29465 C 58.632811,276.92679 53.123315,272.6335 48.102588,267.787 L 62.491601,258.96941 z" />
    <path
       style="opacity:1;fill:#4e9a06;fill-opacity:1;stroke:none;stroke-width:5;stroke-linecap:butt;stroke-miterlimit:4;stroke-dasharray:5, 5;stroke-dashoffset:0;stroke-opacity:1"
       id="path2425"
       d="M 87.285417,745.41503 C 92.079283,743.83501 97.093798,742.86252 102.04891,741.89603 C 107.52491,740.54505 113.09469,739.74666 118.71338,739.34387 C 122.83612,739.07443 126.96993,739.08224 131.09944,739.06911 C 134.85213,739.07764 138.6048,739.08803 142.35748,739.1013 C 148.45427,739.18646 154.55495,739.09537 160.64691,739.36073 C 169.50907,739.65119 178.27834,740.87643 186.97649,742.53318 C 196.92384,744.3097 206.72885,746.76825 216.66975,748.57902 C 226.37409,750.39523 236.0011,752.57234 245.65428,754.63348 C 255.38292,756.82602 265.06231,759.23126 274.80117,761.37804 C 283.04069,763.03643 291.31575,764.5645 299.39424,766.90719 C 304.50369,768.42897 309.3506,770.63539 313.88113,773.42908 C 317.27159,775.6325 320.26148,777.68224 323.02168,780.65872 C 323.56309,781.24459 324.15307,781.78903 324.6459,782.41631 C 326.72996,785.06896 328.28771,788.13125 330.17632,790.91868 C 330.92048,792.017 335.00191,797.69435 335.58726,798.51102 C 343.75107,808.78063 350.4595,820.07149 356.79461,831.52703 C 363.59103,844.06099 368.31216,857.53657 373.80223,870.65473 C 377.08656,878.45496 380.52313,886.19162 384.09748,893.86323 C 385.51315,897.08074 387.02929,900.27602 387.99335,903.66465 C 388.11114,903.99372 388.22893,904.3228 388.34671,904.65188 L 373.60437,912.80183 C 373.47555,912.42865 373.34672,912.05546 373.2179,911.68228 C 372.39827,908.33339 370.96038,905.17953 369.71332,901.97542 C 366.32757,894.17284 363.29333,886.22065 360.0593,878.35478 C 354.63328,865.26939 350.13231,851.75921 343.25313,839.31572 C 336.89796,827.93715 330.09935,816.76387 321.77137,806.69678 C 320.5775,805.12899 317.33721,800.90379 316.09432,799.16467 C 313.72608,795.8509 311.84102,792.14343 308.83286,789.3326 C 306.10397,786.69492 303.09177,784.5101 299.89928,782.45409 C 295.507,779.76163 290.80794,777.64292 285.86687,776.1596 C 277.88912,773.81054 269.72635,772.2467 261.59355,770.53685 C 251.86552,768.32982 242.16615,765.99936 232.43285,763.81536 C 222.8011,761.70275 213.16553,759.6128 203.47245,757.79544 C 193.56738,755.8516 183.7421,753.51304 173.80072,751.75365 C 165.05643,750.28558 156.26457,749.01754 147.37804,748.92393 C 141.20825,748.72168 135.03934,748.88248 128.86758,748.89931 C 125.10799,748.90169 121.34848,748.88963 117.58889,748.88737 C 113.5173,748.88326 109.44233,748.90639 105.37873,749.19155 C 99.845115,749.65868 94.373293,750.54297 88.96294,751.80674 C 83.890987,752.86058 78.816154,753.99937 73.918381,755.707 L 87.285417,745.41503 z" />
    <path
       style="opacity:1;fill:#4e9a06;fill-opacity:1;stroke:none;stroke-width:5;stroke-linecap:butt;stroke-miterlimit:4;stroke-dasharray:5, 5;stroke-dashoffset:0;stroke-opacity:1"
       id="path2427"
       d="M 109.1804,643.93317 C 112.94812,645.30875 116.66084,646.80574 120.32394,648.44305 C 125.9858,650.90989 131.89684,652.52257 137.88045,653.96709 C 143.77439,655.15832 149.70613,656.16207 155.69311,656.74028 C 161.3125,657.20971 166.95472,657.18579 172.58816,657.28083 C 179.46621,657.32465 186.34439,657.27533 193.22248,657.26518 C 199.70003,657.26583 206.17768,657.21488 212.65494,657.28404 C 220.99481,657.60758 229.28248,656.79944 237.4654,655.23985 C 246.04507,653.63879 254.55109,651.69357 263.07868,649.84408 C 271.32604,647.87148 279.62443,646.13532 287.91039,644.33981 C 293.49999,643.15736 299.18654,642.52811 304.7973,641.47097 C 311.43225,640.47737 317.91146,638.74555 324.4925,637.47952 C 332.86946,635.79552 341.19575,633.88029 349.54013,632.0456 C 355.00929,630.74683 360.5766,629.9565 366.08285,628.87098 C 370.82878,627.6492 375.43403,626.00422 380.0514,624.37814 C 385.76798,621.86269 391.3943,619.15265 396.99684,616.3948 C 401.36224,614.06659 405.96038,612.22387 410.36798,609.98599 C 416.68695,607.41794 422.74335,604.27626 428.83624,601.21899 C 434.43832,598.38807 440.34978,596.29199 446.12495,593.87056 C 446.86158,593.54244 447.60103,593.22058 448.33483,592.88618 C 449.94458,592.1526 450.94017,591.69773 452.47325,590.83524 C 453.08628,590.49035 454.89347,589.40077 454.28144,589.74745 C 442.0319,596.68626 437.5292,599.62493 443.17955,595.984 C 445.49827,594.50239 447.73599,592.90038 449.93021,591.24171 C 452.90867,588.85142 455.71526,586.2671 458.40296,583.55647 C 461.43697,580.38347 464.27563,577.02833 466.77817,573.42197 C 470.70567,566.69708 475.78017,560.74112 480.65357,554.69749 C 487.86151,545.47805 494.9838,536.18536 502.56649,527.26976 C 512.90123,515.39687 524.19893,504.48532 536.23041,494.35727 C 546.8784,486.25901 557.25621,477.68517 568.46701,470.35409 C 570.58376,468.96989 572.76822,467.69211 574.91883,466.36112 C 588.00788,458.57779 601.31037,450.51897 615.96189,445.96977 C 620.64583,444.32246 625.49295,443.58772 630.42756,443.3512 C 635.12753,443.23597 639.82954,443.24194 644.53064,443.22795 C 647.32578,442.94587 649.84821,443.95059 652.44387,444.7659 C 655.14019,445.7738 657.94095,446.53244 660.76905,447.0726 C 663.98222,447.98309 667.28228,448.48737 670.60406,448.76716 C 672.25508,449.13879 671.45632,448.95192 673.0009,449.32538 L 659.15237,458.9133 C 657.70302,458.59336 658.44388,458.73572 656.92897,458.49041 C 653.59506,458.08685 650.3063,457.43344 647.0463,456.62684 C 644.15539,456.00101 641.29519,455.22445 638.50518,454.23849 C 636.07062,453.42088 633.62779,452.86135 631.02845,453.0306 C 626.36865,452.98327 621.70373,452.93553 617.04904,453.2026 C 612.25922,453.58729 607.55845,454.44555 602.99959,456.01267 C 597.66656,457.75804 592.51506,459.919 587.4605,462.36121 C 585.65282,463.23462 580.53084,466.34744 582.08352,465.07473 C 584.27996,463.27434 586.97783,462.19221 589.42498,460.75095 C 587.25405,462.06168 585.04787,463.31573 582.91219,464.68315 C 571.61779,471.91468 561.26871,480.56291 550.54077,488.57776 C 545.09159,493.11047 543.38494,494.40432 538.19752,499.21917 C 530.75114,506.13076 523.87022,513.6274 517.04201,521.13978 C 509.49788,529.94334 502.56062,539.24025 495.43005,548.3791 C 490.75044,554.35133 485.69372,560.12166 481.93642,566.74304 C 479.73697,570.60126 476.69455,573.88779 473.72302,577.17337 C 471.17198,579.92125 468.45498,582.54061 465.54932,584.91266 C 463.51775,586.86521 461.01775,588.26061 458.7562,589.92866 C 450.48184,595.11447 442.17058,600.40137 433.11218,604.11731 C 427.3849,606.38594 421.64366,608.62147 416.12771,611.38354 C 409.91898,614.46883 403.73678,617.60123 397.37681,620.3649 C 392.95409,622.47636 388.45935,624.43623 384.10433,626.68957 C 378.47039,629.43049 372.82141,632.1551 367.02248,634.53325 C 362.34283,636.16983 357.66371,637.87768 352.79909,638.88995 C 347.37036,639.78221 341.96253,640.76291 336.57696,641.89471 C 328.20717,643.69377 319.85857,645.58809 311.47707,647.33197 C 304.86999,648.68973 298.33408,650.3685 291.6586,651.38731 C 286.06129,652.39511 280.40908,653.09536 274.83776,654.25605 C 266.6017,655.918 258.38329,657.66128 250.21193,659.62219 C 241.67587,661.50279 233.15091,663.43313 224.54716,664.98856 C 216.25745,666.45256 207.87175,667.12878 199.4485,666.87936 C 192.94628,666.94851 186.44367,666.90399 179.94115,666.91679 C 173.06733,666.92126 166.19352,666.90153 159.3197,666.91009 C 153.62495,666.94277 147.92117,666.85215 142.24885,666.2982 C 136.24091,665.6375 130.28289,664.58339 124.37959,663.28944 C 118.30499,661.7832 112.28662,660.06444 106.50554,657.63538 C 102.83119,656.05616 99.11218,654.5649 95.261511,653.46559 L 109.1804,643.93317 z" />
    <path
       style="opacity:1;fill:#4e9a06;fill-opacity:1;stroke:none;stroke-width:5;stroke-linecap:butt;stroke-miterlimit:4;stroke-dasharray:5, 5;stroke-dashoffset:0;stroke-opacity:1"
       id="path2429"
       d="M 230.58631,655.61669 C 234.89319,651.43664 237.79889,646.21278 241.15236,641.30386 C 244.93901,636.09158 248.75548,630.89957 252.31215,625.52618 C 255.94611,620.12361 259.43108,614.66551 261.86134,608.58719 C 262.63276,606.65781 263.24383,604.66812 263.93507,602.70859 C 267.48726,591.20944 269.61845,579.4098 270.78766,567.4538 C 271.48523,558.80589 271.58453,550.12223 271.61079,541.45057 C 271.60206,534.46017 271.4914,527.47053 271.45791,520.48025 C 271.57594,517.0302 271.20989,513.55377 271.38133,510.10571 C 271.50038,507.71135 271.77102,506.49271 272.16085,504.11235 C 273.33764,497.30974 275.08428,490.62811 276.42201,483.85851 C 277.78088,475.69142 279.82945,467.68868 282.20017,459.76332 C 285.51996,450.42544 287.27781,440.66997 289.15116,430.9703 C 290.72764,421.98107 291.72821,412.90042 292.67716,403.82678 C 293.70135,396.65084 294.45326,389.44315 295.30704,382.24632 C 296.41047,375.56493 298.19095,369.02282 299.54505,362.39201 C 300.8577,355.95763 302.82945,349.70452 305.21055,343.59394 C 307.09264,338.46414 310.05278,334.01841 313.58391,329.89749 C 319.31216,324.47245 325.66542,319.64107 332.15535,315.1555 C 347.31802,305.15332 363.58381,297.02464 380.108,289.56971 C 394.33671,283.61667 408.60886,277.7655 422.98876,272.18416 C 435.06297,267.59975 447.25622,263.34036 459.40365,258.9568 C 466.93938,255.77417 474.79966,253.67006 482.82675,252.20639 C 490.28417,251.02561 497.85792,251.1345 505.38445,251.13489 C 519.59546,251.23993 533.80632,251.30217 548.01772,251.26499 C 561.8901,250.89498 575.67935,252.68851 589.38347,254.61246 C 598.554,255.88237 607.32644,258.77928 615.98161,261.96485 C 623.00344,264.71601 629.906,267.74792 636.93614,270.4771 C 643.33909,272.8902 650.05789,274.14818 656.7147,275.59783 C 659.56805,276.38062 662.54112,276.53995 665.41179,277.20241 L 651.62308,286.7902 C 648.77804,286.25361 645.92128,285.77667 643.1213,285.02277 C 636.48478,283.4885 629.82709,281.98691 623.45041,279.5338 C 616.40846,276.81706 609.46659,273.8737 602.45876,271.06942 C 593.97497,267.85129 585.33053,265.08664 576.31266,263.8141 C 562.77846,261.64043 549.13432,259.99025 535.39318,260.43563 C 521.05714,260.37332 506.72026,260.37485 492.38545,260.59925 C 484.81774,260.75056 477.20285,260.79282 469.72411,262.10402 C 461.9045,263.62601 454.25471,265.73666 446.86094,268.74508 C 434.77382,273.03052 422.6759,277.29125 410.68419,281.83888 C 396.33908,287.39543 382.0851,293.18873 367.93911,299.23289 C 361.32729,302.28361 354.73302,305.39016 348.25532,308.71994 C 346.3533,309.69765 340.8263,312.94497 342.60104,311.75169 C 345.43863,309.8438 348.44874,308.20082 351.4538,306.56939 C 352.93314,305.76626 348.60663,308.36589 347.18304,309.26414 C 340.72031,313.53885 334.66943,318.43915 328.80375,323.49204 C 325.1675,327.39957 322.17114,331.69624 320.16719,336.67747 C 317.69879,342.67704 315.56271,348.8189 314.36902,355.21428 C 312.99836,361.81367 311.13344,368.30812 310.04719,374.96541 C 309.09771,382.18724 308.3492,389.43303 307.18755,396.62657 C 306.87081,399.53838 306.66179,402.46146 306.32881,405.37145 C 305.61802,411.58319 304.43904,417.74645 303.63919,423.94637 C 301.61613,433.65137 300.19504,443.53038 296.74928,452.87019 C 294.44698,460.72946 292.49067,468.64981 291.10843,476.72682 C 289.82224,483.46803 288.16727,490.1333 286.95147,496.88778 C 286.00472,502.23294 286.06022,507.58623 286.12063,513.00447 C 286.12308,520.03289 286.07998,527.06115 286.06831,534.08954 C 286.0424,542.84971 286.00353,551.61821 285.09897,560.34407 C 283.8186,572.4139 281.75619,584.3329 278.2599,595.98203 C 276.61604,601.19595 274.86352,606.25032 272.33134,611.11489 C 270.71403,614.2219 270.58811,613.94495 268.81716,616.65813 C 268.34067,617.38813 267.9078,618.14568 267.45311,618.88945 C 263.89278,624.3474 259.97042,629.55595 256.09362,634.79106 C 252.79777,639.56424 250.24414,644.82604 246.12179,648.97934 L 230.58631,655.61669 z" />
    <text
       xml:space="preserve"
       style="font-size:18px;font-style:normal;font-variant:normal;font-weight:normal;font-stretch:normal;fill:#4e9a06;fill-opacity:1;stroke:none;stroke-width:1px;stroke-linecap:butt;stroke-linejoin:miter;stroke-opacity:1;font-family:Arial;-inkscape-font-specification:Arial"
       x="22.756876"
       y="706.45721"
       id="text2431"><tspan
         sodipodi:role="line"
         id="tspan2433"
         x="22.756876"
         y="706.45721">PSACE</tspan></text>
    <text
       xml:space="preserve"
       style="font-size:18px;font-style:normal;font-variant:normal;font-weight:normal;font-stretch:normal;fill:#4e9a06;fill-opacity:1;stroke:none;stroke-width:1px;stroke-linecap:butt;stroke-linejoin:miter;stroke-opacity:1;font-family:Arial;-inkscape-font-specification:Arial"
       x="34.135353"
       y="837.30945"
       id="text2435"><tspan
         sodipodi:role="line"
         id="tspan2437"
         x="34.135353"
         y="837.30945">P</tspan></text>
    <text
       xml:space="preserve"
       style="font-size:18px;font-style:normal;font-variant:normal;font-weight:normal;font-stretch:normal;fill:#4e9a06;fill-opacity:1;stroke:none;stroke-width:1px;stroke-linecap:butt;stroke-linejoin:miter;stroke-opacity:1;font-family:Arial;-inkscape-font-specification:Arial"
       x="306.08032"
       y="493.68024"
       id="text2439"><tspan
         sodipodi:role="line"
         id="tspan2441"
         x="306.08032"
         y="493.68024">EXPTIME</tspan></text>
    <text
       xml:space="preserve"
       style="font-size:18px;font-style:normal;font-variant:normal;font-weight:normal;font-stretch:normal;fill:#4e9a06;fill-opacity:1;stroke:none;stroke-width:1px;stroke-linecap:butt;stroke-linejoin:miter;stroke-opacity:1;font-family:Arial;-inkscape-font-specification:Arial"
       x="18.205517"
       y="229.70015"
       id="text2443"><tspan
         sodipodi:role="line"
         id="tspan2445"
         x="18.205517"
         y="229.70015">unentscheidbar</tspan></text>
    <rect
       style="opacity:1;fill:none;fill-opacity:1;stroke:#000000;stroke-width:3;stroke-linecap:butt;stroke-miterlimit:4;stroke-dasharray:none;stroke-dashoffset:0;stroke-opacity:1"
       id="rect3223"
       width="81.92485"
       height="37.548889"
       x="155.88478"
       y="253.59491" />
    <rect
       style="opacity:1;fill:none;fill-opacity:1;stroke:#000000;stroke-width:3;stroke-linecap:butt;stroke-miterlimit:4;stroke-dasharray:none;stroke-dashoffset:0;stroke-opacity:1"
       id="rect3225"
       width="81.92485"
       height="37.548889"
       x="362.9726"
       y="315.60748" />
    <rect
       style="opacity:1;fill:none;fill-opacity:1;stroke:#000000;stroke-width:3;stroke-linecap:butt;stroke-miterlimit:4;stroke-dasharray:none;stroke-dashoffset:0;stroke-opacity:1"
       id="rect3227"
       width="81.92485"
       height="37.548889"
       x="554.13055"
       y="298.53979" />
    <rect
       style="opacity:1;fill:none;fill-opacity:1;stroke:#000000;stroke-width:3;stroke-linecap:butt;stroke-miterlimit:4;stroke-dasharray:none;stroke-dashoffset:0;stroke-opacity:1"
       id="rect3229"
       width="81.92485"
       height="37.548889"
       x="440.34604"
       y="415.73785" />
    <rect
       style="opacity:1;fill:none;fill-opacity:1;stroke:#000000;stroke-width:3;stroke-linecap:butt;stroke-miterlimit:4;stroke-dasharray:none;stroke-dashoffset:0;stroke-opacity:1"
       id="rect3231"
       width="81.92485"
       height="37.548889"
       x="375.48886"
       y="545.45215" />
    <rect
       style="opacity:1;fill:none;fill-opacity:1;stroke:#000000;stroke-width:3;stroke-linecap:butt;stroke-miterlimit:4;stroke-dasharray:none;stroke-dashoffset:0;stroke-opacity:1"
       id="rect3233"
       width="81.92485"
       height="37.548889"
       x="518.85736"
       y="529.52234" />
    <rect
       style="opacity:1;fill:none;fill-opacity:1;stroke:#000000;stroke-width:3;stroke-linecap:butt;stroke-miterlimit:4;stroke-dasharray:none;stroke-dashoffset:0;stroke-opacity:1"
       id="rect3235"
       width="81.92485"
       height="37.548889"
       x="459.68942"
       y="662.65027" />
    <rect
       style="opacity:1;fill:none;fill-opacity:1;stroke:#000000;stroke-width:3;stroke-linecap:butt;stroke-miterlimit:4;stroke-dasharray:none;stroke-dashoffset:0;stroke-opacity:1"
       id="rect3237"
       width="81.92485"
       height="37.548889"
       x="303.80466"
       y="716.12891" />
    <rect
       style="opacity:1;fill:none;fill-opacity:1;stroke:#000000;stroke-width:3;stroke-linecap:butt;stroke-miterlimit:4;stroke-dasharray:none;stroke-dashoffset:0;stroke-opacity:1"
       id="rect3239"
       width="81.92485"
       height="37.548889"
       x="197.98505"
       y="778.71045" />
    <rect
       style="opacity:1;fill:none;fill-opacity:1;stroke:#000000;stroke-width:3;stroke-linecap:butt;stroke-miterlimit:4;stroke-dasharray:none;stroke-dashoffset:0;stroke-opacity:1"
       id="rect3241"
       width="81.92485"
       height="37.548889"
       x="136.5414"
       y="870.87592" />
    <path
       style="fill:none;fill-rule:evenodd;stroke:#000000;stroke-width:1px;stroke-linecap:butt;stroke-linejoin:miter;stroke-opacity:1"
       d="M 225.43117,817.75934 L 191.02012,869.37592"
       id="path3245"
       inkscape:connector-type="polyline"
       inkscape:connection-start="#rect3239"
       inkscape:connection-end="#rect3241" />
    <path
       style="fill:none;fill-rule:evenodd;stroke:#000000;stroke-width:1px;stroke-linecap:butt;stroke-linejoin:miter;stroke-opacity:1"
       d="M 273.22969,777.21045 L 310.48487,755.1778"
       id="path3247"
       inkscape:connector-type="polyline"
       inkscape:connection-start="#rect3239"
       inkscape:connection-end="#rect3237" />
    <path
       style="fill:none;fill-rule:evenodd;stroke:#000000;stroke-width:1px;stroke-linecap:butt;stroke-linejoin:miter;stroke-opacity:1"
       d="M 338.28325,714.62891 L 203.33104,292.6438"
       id="path3249"
       inkscape:connector-type="polyline"
       inkscape:connection-start="#rect3237"
       inkscape:connection-end="#rect3223" />
    <path
       style="fill:none;fill-rule:evenodd;stroke:#000000;stroke-width:1px;stroke-linecap:butt;stroke-linejoin:miter;stroke-opacity:1"
       d="M 387.22951,720.33597 L 458.18942,695.99209"
       id="path3251"
       inkscape:connector-type="polyline"
       inkscape:connection-start="#rect3237"
       inkscape:connection-end="#rect3235" />
    <path
       style="fill:none;fill-rule:evenodd;stroke:#000000;stroke-width:1px;stroke-linecap:butt;stroke-linejoin:miter;stroke-opacity:1"
       d="M 486.08575,661.15027 L 431.01739,584.50104"
       id="path3253"
       inkscape:connector-type="polyline"
       inkscape:connection-start="#rect3235"
       inkscape:connection-end="#rect3231" />
    <path
       style="fill:none;fill-rule:evenodd;stroke:#000000;stroke-width:1px;stroke-linecap:butt;stroke-linejoin:miter;stroke-opacity:1"
       d="M 509.66271,661.15027 L 550.80893,568.57123"
       id="path3255"
       inkscape:connector-type="polyline"
       inkscape:connection-start="#rect3235"
       inkscape:connection-end="#rect3233" />
    <path
       style="fill:none;fill-rule:evenodd;stroke:#000000;stroke-width:1px;stroke-linecap:butt;stroke-linejoin:miter;stroke-opacity:1"
       d="M 545.83041,528.02234 L 495.29784,454.78674"
       id="path3257"
       inkscape:connector-type="polyline"
       inkscape:connection-start="#rect3233"
       inkscape:connection-end="#rect3229" />
    <path
       style="fill:none;fill-rule:evenodd;stroke:#000000;stroke-width:1px;stroke-linecap:butt;stroke-linejoin:miter;stroke-opacity:1"
       d="M 426.58851,543.95215 L 471.17124,454.78674"
       id="path3259"
       inkscape:connector-type="polyline"
       inkscape:connection-start="#rect3231"
       inkscape:connection-end="#rect3229" />
    <path
       style="fill:none;fill-rule:evenodd;stroke:#000000;stroke-width:1px;stroke-linecap:butt;stroke-linejoin:miter;stroke-opacity:1"
       d="M 465.64185,414.23785 L 419.60163,354.65637"
       id="path3261"
       inkscape:connector-type="polyline"
       inkscape:connection-start="#rect3229"
       inkscape:connection-end="#rect3225" />
    <path
       style="fill:none;fill-rule:evenodd;stroke:#000000;stroke-width:1px;stroke-linecap:butt;stroke-linejoin:miter;stroke-opacity:1"
       d="M 500.99239,414.23785 L 575.40905,337.58868"
       id="path3263"
       inkscape:connector-type="polyline"
       inkscape:connection-start="#rect3229"
       inkscape:connection-end="#rect3227" />
  </g>
</svg>
