<?xml version="1.0" encoding="UTF-8" standalone="no"?>
<!-- Created with Inkscape (http://www.inkscape.org/) -->
<svg
   xmlns:dc="http://purl.org/dc/elements/1.1/"
   xmlns:cc="http://creativecommons.org/ns#"
   xmlns:rdf="http://www.w3.org/1999/02/22-rdf-syntax-ns#"
   xmlns:svg="http://www.w3.org/2000/svg"
   xmlns="http://www.w3.org/2000/svg"
   xmlns:xlink="http://www.w3.org/1999/xlink"
   xmlns:sodipodi="http://sodipodi.sourceforge.net/DTD/sodipodi-0.dtd"
   xmlns:inkscape="http://www.inkscape.org/namespaces/inkscape"
   width="1007.0402"
   height="491.72296"
   id="svg4929"
   sodipodi:version="0.32"
   inkscape:version="0.46"
   version="1.0"
   sodipodi:docname="u2r3-konzeption.svg"
   inkscape:output_extension="org.inkscape.output.svg.inkscape">
  <defs
     id="defs4931">
    <marker
       inkscape:stockid="Arrow1Lstart"
       orient="auto"
       refY="0"
       refX="0"
       id="Arrow1Lstart"
       style="overflow:visible">
      <path
         id="path5669"
         d="M 0,0 L 5,-5 L -12.5,0 L 5,5 L 0,0 z"
         style="fill-rule:evenodd;stroke:#000000;stroke-width:1pt;marker-start:none"
         transform="matrix(0.8,0,0,0.8,10,0)" />
    </marker>
    <marker
       inkscape:stockid="Arrow1Lend"
       orient="auto"
       refY="0"
       refX="0"
       id="Arrow1Lend"
       style="overflow:visible">
      <path
         id="path5672"
         d="M 0,0 L 5,-5 L -12.5,0 L 5,5 L 0,0 z"
         style="fill-rule:evenodd;stroke:#000000;stroke-width:1pt;marker-start:none"
         transform="matrix(-0.8,0,0,-0.8,-10,0)" />
    </marker>
    <filter
       inkscape:collect="always"
       id="filter3189"
       x="-0.013535156"
       width="1.0270703"
       y="-0.10580153"
       height="1.211603">
      <feGaussianBlur
         inkscape:collect="always"
         stdDeviation="0.90234375"
         id="feGaussianBlur3191" />
    </filter>
    <linearGradient
       inkscape:collect="always"
       xlink:href="#linearGradient3161"
       id="linearGradient3177"
       x1="325.21426"
       y1="335.21933"
       x2="487.64285"
       y2="335.21933"
       gradientUnits="userSpaceOnUse" />
    <linearGradient
       id="linearGradient3161">
      <stop
         style="stop-color:#7d7d7d;stop-opacity:1;"
         offset="0"
         id="stop3163" />
      <stop
         id="stop3169"
         offset="0.33333334"
         style="stop-color:#c8c8c8;stop-opacity:1;" />
      <stop
         style="stop-color:#7d7d7d;stop-opacity:1;"
         offset="1"
         id="stop3165" />
    </linearGradient>
    <linearGradient
       inkscape:collect="always"
       xlink:href="#linearGradient3161"
       id="linearGradient3167"
       x1="319.46326"
       y1="412.3902"
       x2="480.46396"
       y2="412.3902"
       gradientUnits="userSpaceOnUse" />
    <linearGradient
       id="linearGradient2214">
      <stop
         style="stop-color:#a9aaa7;stop-opacity:1.0000000;"
         offset="0.0000000"
         id="stop2216" />
      <stop
         style="stop-color:#676964;stop-opacity:1.0000000;"
         offset="1.0000000"
         id="stop2218" />
    </linearGradient>
    <linearGradient
       inkscape:collect="always"
       xlink:href="#linearGradient2214"
       id="linearGradient4959"
       gradientUnits="userSpaceOnUse"
       gradientTransform="matrix(1,0,0,0.744756,0,9.569132)"
       x1="40.253334"
       y1="42.318577"
       x2="36.451904"
       y2="37.999615" />
    <linearGradient
       inkscape:collect="always"
       id="linearGradient6447">
      <stop
         style="stop-color:#777973;stop-opacity:1;"
         offset="0"
         id="stop6449" />
      <stop
         style="stop-color:#777973;stop-opacity:0;"
         offset="1"
         id="stop6451" />
    </linearGradient>
    <radialGradient
       inkscape:collect="always"
       xlink:href="#linearGradient6447"
       id="radialGradient4957"
       gradientUnits="userSpaceOnUse"
       gradientTransform="matrix(1,0,0,0.73779,0,9.844321)"
       cx="37.495605"
       cy="39.510021"
       fx="37.495605"
       fy="39.510021"
       r="2.5100369" />
    <linearGradient
       id="linearGradient2667">
      <stop
         id="stop2669"
         offset="0.0000000"
         style="stop-color:#ffffff;stop-opacity:1.0000000;" />
      <stop
         id="stop2671"
         offset="1.0000000"
         style="stop-color:#fcfcff;stop-opacity:0.0000000;" />
    </linearGradient>
    <linearGradient
       inkscape:collect="always"
       xlink:href="#linearGradient2667"
       id="linearGradient4955"
       gradientUnits="userSpaceOnUse"
       gradientTransform="matrix(1.236157,0,0,0.896051,-1.08182,2.830699)"
       x1="11.492236"
       y1="1.6537577"
       x2="17.199417"
       y2="26.729263" />
    <linearGradient
       inkscape:collect="always"
       id="linearGradient2238">
      <stop
         style="stop-color:#ffffff;stop-opacity:1;"
         offset="0"
         id="stop2240" />
      <stop
         style="stop-color:#ffffff;stop-opacity:0;"
         offset="1"
         id="stop2242" />
    </linearGradient>
    <linearGradient
       inkscape:collect="always"
       xlink:href="#linearGradient2238"
       id="linearGradient4953"
       gradientUnits="userSpaceOnUse"
       gradientTransform="matrix(0.953506,0,0,0.947873,1.141528,1.205591)"
       x1="20.338758"
       y1="19.636894"
       x2="48.845253"
       y2="49.730762" />
    <linearGradient
       id="linearGradient4254">
      <stop
         style="stop-color:#616161;stop-opacity:1.0000000;"
         offset="0.0000000"
         id="stop4256" />
      <stop
         style="stop-color:#a0a0a0;stop-opacity:1.0000000;"
         offset="1.0000000"
         id="stop4258" />
    </linearGradient>
    <linearGradient
       inkscape:collect="always"
       xlink:href="#linearGradient4254"
       id="linearGradient4951"
       gradientUnits="userSpaceOnUse"
       gradientTransform="matrix(0.997583,0,0,0.989941,0.104141,7.028871e-2)"
       x1="11.048059"
       y1="9.146349"
       x2="26.178129"
       y2="30.343304" />
    <linearGradient
       id="linearGradient2198">
      <stop
         style="stop-color:#748f48;stop-opacity:1.0000000;"
         offset="0.0000000"
         id="stop2200" />
      <stop
         style="stop-color:#1f2816;stop-opacity:1.0000000;"
         offset="1.0000000"
         id="stop2202" />
    </linearGradient>
    <linearGradient
       inkscape:collect="always"
       xlink:href="#linearGradient2198"
       id="linearGradient4949"
       gradientUnits="userSpaceOnUse"
       gradientTransform="matrix(0.950085,0,0,0.965659,1.243978,0.255342)"
       x1="23.118565"
       y1="9.5830288"
       x2="22.440805"
       y2="34.225887" />
    <linearGradient
       id="linearGradient5176">
      <stop
         id="stop5178"
         offset="0.0000000"
         style="stop-color:#a2a59c;stop-opacity:1.0000000;" />
      <stop
         id="stop5180"
         offset="1.0000000"
         style="stop-color:#535750;stop-opacity:1.0000000;" />
    </linearGradient>
    <linearGradient
       inkscape:collect="always"
       xlink:href="#linearGradient5176"
       id="linearGradient4947"
       gradientUnits="userSpaceOnUse"
       gradientTransform="matrix(0.957412,0,0,0.952331,1.022766,0.133307)"
       x1="8.6529236"
       y1="9.5865316"
       x2="21.305075"
       y2="32.497993" />
    <linearGradient
       id="linearGradient2206">
      <stop
         style="stop-color:#777973;stop-opacity:1.0000000;"
         offset="0.0000000"
         id="stop2208" />
      <stop
         style="stop-color:#cbccca;stop-opacity:1.0000000;"
         offset="1.0000000"
         id="stop2210" />
    </linearGradient>
    <linearGradient
       inkscape:collect="always"
       xlink:href="#linearGradient2206"
       id="linearGradient4945"
       gradientUnits="userSpaceOnUse"
       gradientTransform="matrix(0.957412,0,0,0.952331,1.022766,0.133307)"
       x1="29.870447"
       y1="32.28574"
       x2="24.841814"
       y2="14.157946" />
    <radialGradient
       inkscape:collect="always"
       xlink:href="#linearGradient5060"
       id="radialGradient4943"
       gradientUnits="userSpaceOnUse"
       gradientTransform="matrix(-2.774389,0,0,1.969706,112.7623,-872.8854)"
       cx="605.71429"
       cy="486.64789"
       fx="605.71429"
       fy="486.64789"
       r="117.14286" />
    <linearGradient
       inkscape:collect="always"
       id="linearGradient5060">
      <stop
         style="stop-color:black;stop-opacity:1;"
         offset="0"
         id="stop5062" />
      <stop
         style="stop-color:black;stop-opacity:0;"
         offset="1"
         id="stop5064" />
    </linearGradient>
    <radialGradient
       inkscape:collect="always"
       xlink:href="#linearGradient5060"
       id="radialGradient4941"
       gradientUnits="userSpaceOnUse"
       gradientTransform="matrix(2.774389,0,0,1.969706,-1891.633,-872.8854)"
       cx="605.71429"
       cy="486.64789"
       fx="605.71429"
       fy="486.64789"
       r="117.14286" />
    <linearGradient
       id="linearGradient5048">
      <stop
         style="stop-color:black;stop-opacity:0;"
         offset="0"
         id="stop5050" />
      <stop
         id="stop5056"
         offset="0.5"
         style="stop-color:black;stop-opacity:1;" />
      <stop
         style="stop-color:black;stop-opacity:0;"
         offset="1"
         id="stop5052" />
    </linearGradient>
    <linearGradient
       inkscape:collect="always"
       xlink:href="#linearGradient5048"
       id="linearGradient4939"
       gradientUnits="userSpaceOnUse"
       gradientTransform="matrix(2.774389,0,0,1.969706,-1892.179,-872.8854)"
       x1="302.85715"
       y1="366.64789"
       x2="302.85715"
       y2="609.50507" />
    <inkscape:perspective
       sodipodi:type="inkscape:persp3d"
       inkscape:vp_x="0 : 526.18109 : 1"
       inkscape:vp_y="0 : 1000 : 0"
       inkscape:vp_z="744.09448 : 526.18109 : 1"
       inkscape:persp3d-origin="372.04724 : 350.78739 : 1"
       id="perspective4937" />
  </defs>
  <sodipodi:namedview
     id="base"
     pagecolor="#ffffff"
     bordercolor="#666666"
     borderopacity="1.0"
     gridtolerance="10000"
     guidetolerance="10"
     objecttolerance="10"
     inkscape:pageopacity="0.0"
     inkscape:pageshadow="2"
     inkscape:zoom="0.75937668"
     inkscape:cx="494.01996"
     inkscape:cy="377.6149"
     inkscape:document-units="px"
     inkscape:current-layer="layer1"
     showgrid="false"
     inkscape:window-width="1280"
     inkscape:window-height="948"
     inkscape:window-x="0"
     inkscape:window-y="33" />
  <metadata
     id="metadata4934">
    <rdf:RDF>
      <cc:Work
         rdf:about="">
        <dc:format>image/svg+xml</dc:format>
        <dc:type
           rdf:resource="http://purl.org/dc/dcmitype/StillImage" />
      </cc:Work>
    </rdf:RDF>
  </metadata>
  <g
     inkscape:label="Layer 1"
     inkscape:groupmode="layer"
     id="layer1"
     transform="translate(162.92857,-234.07647)">
    <g
       id="g4901"
       transform="matrix(3.21053,0,0,3.21053,677.02704,254.26444)">
      <g
         transform="matrix(2.454499e-2,0,0,2.086758e-2,46.14369,39.34109)"
         id="g5022">
        <rect
           style="opacity:0.40206185;color:#000000;fill:url(#linearGradient4939);fill-opacity:1;fill-rule:nonzero;stroke:none;stroke-width:1;stroke-linecap:round;stroke-linejoin:miter;marker:none;marker-start:none;marker-mid:none;marker-end:none;stroke-miterlimit:4;stroke-dasharray:none;stroke-dashoffset:0;stroke-opacity:1;visibility:visible;display:inline;overflow:visible"
           id="rect4173"
           width="1339.6335"
           height="478.35718"
           x="-1559.2523"
           y="-150.69685" />
        <path
           style="opacity:0.40206185;color:#000000;fill:url(#radialGradient4941);fill-opacity:1;fill-rule:nonzero;stroke:none;stroke-width:1;stroke-linecap:round;stroke-linejoin:miter;marker:none;marker-start:none;marker-mid:none;marker-end:none;stroke-miterlimit:4;stroke-dasharray:none;stroke-dashoffset:0;stroke-opacity:1;visibility:visible;display:inline;overflow:visible"
           d="M -219.61876,-150.68038 C -219.61876,-150.68038 -219.61876,327.65041 -219.61876,327.65041 C -76.744594,328.55086 125.78146,220.48075 125.78138,88.454235 C 125.78138,-43.572302 -33.655436,-150.68036 -219.61876,-150.68038 z"
           id="path5058"
           sodipodi:nodetypes="cccc" />
        <path
           sodipodi:nodetypes="cccc"
           id="path5018"
           d="M -1559.2523,-150.68038 C -1559.2523,-150.68038 -1559.2523,327.65041 -1559.2523,327.65041 C -1702.1265,328.55086 -1904.6525,220.48075 -1904.6525,88.454235 C -1904.6525,-43.572302 -1745.2157,-150.68036 -1559.2523,-150.68038 z"
           style="opacity:0.40206185;color:#000000;fill:url(#radialGradient4943);fill-opacity:1;fill-rule:nonzero;stroke:none;stroke-width:1;stroke-linecap:round;stroke-linejoin:miter;marker:none;marker-start:none;marker-mid:none;marker-end:none;stroke-miterlimit:4;stroke-dasharray:none;stroke-dashoffset:0;stroke-opacity:1;visibility:visible;display:inline;overflow:visible" />
      </g>
      <rect
         ry="4.8517079"
         rx="4.8517075"
         y="3.5015533"
         x="1.5026338"
         height="38.998734"
         width="44.996037"
         id="rect1316"
         style="opacity:1;fill:url(#linearGradient4945);fill-opacity:1;fill-rule:evenodd;stroke:url(#linearGradient4947);stroke-width:0.99999946;stroke-linecap:round;stroke-linejoin:round;stroke-miterlimit:4;stroke-dasharray:none;stroke-dashoffset:0;stroke-opacity:1" />
      <rect
         ry="1.6452144"
         rx="1.645215"
         y="7.4827089"
         x="5.4962788"
         height="29.022322"
         width="37.088005"
         id="rect1314"
         style="opacity:1;fill:url(#linearGradient4949);fill-opacity:1;fill-rule:evenodd;stroke:url(#linearGradient4951);stroke-width:0.99495775;stroke-linecap:round;stroke-linejoin:round;stroke-miterlimit:4;stroke-dasharray:none;stroke-dashoffset:0;stroke-opacity:1" />
      <g
         style="opacity:0.25568183"
         id="g2286">
        <path
           style="fill:none;fill-opacity:0.75;fill-rule:evenodd;stroke:#181f10;stroke-width:1.00072134;stroke-linecap:butt;stroke-linejoin:miter;stroke-miterlimit:4;stroke-dasharray:none;stroke-opacity:1"
           d="M 8.0152033,11.500361 L 39.994145,11.500361"
           id="path1345" />
        <path
           id="path2264"
           d="M 8.0152033,13.500361 L 39.994145,13.500361"
           style="fill:none;fill-opacity:0.75;fill-rule:evenodd;stroke:#181f10;stroke-width:1.00072134;stroke-linecap:butt;stroke-linejoin:miter;stroke-miterlimit:4;stroke-dasharray:none;stroke-opacity:1" />
        <path
           style="fill:none;fill-opacity:0.75;fill-rule:evenodd;stroke:#181f10;stroke-width:1.00072134;stroke-linecap:butt;stroke-linejoin:miter;stroke-miterlimit:4;stroke-dasharray:none;stroke-opacity:1"
           d="M 8.0152033,15.500361 L 39.994145,15.500361"
           id="path2266" />
        <path
           id="path2268"
           d="M 8.0152033,17.500361 L 39.994145,17.500361"
           style="fill:none;fill-opacity:0.75;fill-rule:evenodd;stroke:#181f10;stroke-width:1.00072134;stroke-linecap:butt;stroke-linejoin:miter;stroke-miterlimit:4;stroke-dasharray:none;stroke-opacity:1" />
        <path
           style="fill:none;fill-opacity:0.75;fill-rule:evenodd;stroke:#181f10;stroke-width:1.00072134;stroke-linecap:butt;stroke-linejoin:miter;stroke-miterlimit:4;stroke-dasharray:none;stroke-opacity:1"
           d="M 8.0152033,19.500361 L 39.994145,19.500361"
           id="path2270" />
        <path
           id="path2272"
           d="M 8.0152033,21.500361 L 39.994145,21.500361"
           style="fill:none;fill-opacity:0.75;fill-rule:evenodd;stroke:#181f10;stroke-width:1.00072134;stroke-linecap:butt;stroke-linejoin:miter;stroke-miterlimit:4;stroke-dasharray:none;stroke-opacity:1" />
        <path
           style="fill:none;fill-opacity:0.75;fill-rule:evenodd;stroke:#181f10;stroke-width:1.00072134;stroke-linecap:butt;stroke-linejoin:miter;stroke-miterlimit:4;stroke-dasharray:none;stroke-opacity:1"
           d="M 8.0152033,23.500361 L 39.994145,23.500361"
           id="path2274" />
        <path
           id="path2276"
           d="M 8.0152033,25.500361 L 39.994145,25.500361"
           style="fill:none;fill-opacity:0.75;fill-rule:evenodd;stroke:#181f10;stroke-width:1.00072134;stroke-linecap:butt;stroke-linejoin:miter;stroke-miterlimit:4;stroke-dasharray:none;stroke-opacity:1" />
        <path
           style="fill:none;fill-opacity:0.75;fill-rule:evenodd;stroke:#181f10;stroke-width:1.00072134;stroke-linecap:butt;stroke-linejoin:miter;stroke-miterlimit:4;stroke-dasharray:none;stroke-opacity:1"
           d="M 8.0152033,27.500361 L 39.994145,27.500361"
           id="path2278" />
        <path
           id="path2280"
           d="M 8.0152033,29.500361 L 39.994145,29.500361"
           style="fill:none;fill-opacity:0.75;fill-rule:evenodd;stroke:#181f10;stroke-width:1.00072134;stroke-linecap:butt;stroke-linejoin:miter;stroke-miterlimit:4;stroke-dasharray:none;stroke-opacity:1" />
        <path
           style="fill:none;fill-opacity:0.75;fill-rule:evenodd;stroke:#181f10;stroke-width:1.00072134;stroke-linecap:butt;stroke-linejoin:miter;stroke-miterlimit:4;stroke-dasharray:none;stroke-opacity:1"
           d="M 8.0152033,31.500361 L 39.994145,31.500361"
           id="path2282" />
        <path
           id="path2284"
           d="M 8.0152033,33.500361 L 39.994145,33.500361"
           style="fill:none;fill-opacity:0.75;fill-rule:evenodd;stroke:#181f10;stroke-width:1.00072134;stroke-linecap:butt;stroke-linejoin:miter;stroke-miterlimit:4;stroke-dasharray:none;stroke-opacity:1" />
      </g>
      <rect
         ry="3.7910469"
         rx="3.7910469"
         y="4.5007114"
         x="2.5542557"
         height="37.000587"
         width="42.945141"
         id="rect2232"
         style="opacity:0.76373626;fill:none;fill-opacity:1;fill-rule:evenodd;stroke:url(#linearGradient4953);stroke-width:0.99999946;stroke-linecap:round;stroke-linejoin:round;stroke-miterlimit:4;stroke-dasharray:none;stroke-dashoffset:0;stroke-opacity:1" />
      <path
         sodipodi:nodetypes="ccccccccccccc"
         id="text1340"
         d="M 11.625,20.679392 L 11.625,17.625 L 20.609828,21.685794 L 20.609828,23.541713 L 11.625,27.629147 L 11.625,24.583829 L 18.589396,22.729971 L 11.625,20.679392 z M 30.517635,30.705752 L 30.517635,32.679948 L 19.614229,32.679948 L 19.614229,30.705752 L 30.517635,30.705752"
         style="font-size:18.58501053px;font-style:normal;font-variant:normal;font-weight:bold;font-stretch:normal;text-align:start;line-height:125%;writing-mode:lr-tb;text-anchor:start;fill:#ffffff;fill-opacity:1;stroke:#6ed66e;stroke-width:1pt;stroke-linecap:butt;stroke-linejoin:miter;stroke-opacity:0.2786885;font-family:Bitstream Vera Sans Mono" />
      <path
         id="path2443"
         d="M 7.625388,8 C 7.102102,8 6.05153,8.190188 6.05153,9.0259761 L 6.16958,25.542519 C 23.841567,24.579133 20.294433,17.286426 42,13.633318 L 41.937264,9.2913791 C 41.859002,8.1662868 41.397947,8.0594548 40.327115,8.066071 L 7.625388,8 z"
         style="opacity:0.53142856;fill:url(#linearGradient4955);fill-opacity:1;fill-rule:evenodd;stroke:none;stroke-width:0.25pt;stroke-linecap:butt;stroke-linejoin:miter;stroke-opacity:1"
         sodipodi:nodetypes="ccccccc" />
      <rect
         ry="0.11773217"
         rx="0.11773217"
         y="8.9805145"
         x="6.9894562"
         height="26.057468"
         width="34.026031"
         id="rect1340"
         style="opacity:0.71428576;fill:none;fill-opacity:1;fill-rule:evenodd;stroke:#000000;stroke-width:1.99999917;stroke-linecap:round;stroke-linejoin:round;stroke-miterlimit:4;stroke-dasharray:none;stroke-dashoffset:0;stroke-opacity:1" />
      <rect
         ry="0.56022596"
         rx="0.35819405"
         y="37.514935"
         x="35.485569"
         height="2.9590063"
         width="4.0200734"
         id="rect5025"
         style="opacity:1;fill:url(#radialGradient4957);fill-opacity:1;fill-rule:evenodd;stroke:url(#linearGradient4959);stroke-width:1.00000119;stroke-linecap:round;stroke-linejoin:miter;stroke-miterlimit:4;stroke-dasharray:none;stroke-dashoffset:0;stroke-opacity:1" />
      <rect
         ry="0.56022543"
         rx="0.56022543"
         y="38"
         x="32"
         height="2"
         width="2"
         id="rect6458"
         style="opacity:1;fill:#93d94c;fill-opacity:1;fill-rule:evenodd;stroke:none;stroke-width:2;stroke-linecap:round;stroke-linejoin:miter;stroke-miterlimit:4;stroke-dasharray:none;stroke-dashoffset:0;stroke-opacity:1" />
      <path
         transform="translate(4.375,-6.25e-2)"
         d="M 28.875,38.75 A 0.5625,0.5625 0 1 1 27.75,38.75 A 0.5625,0.5625 0 1 1 28.875,38.75 z"
         sodipodi:ry="0.5625"
         sodipodi:rx="0.5625"
         sodipodi:cy="38.75"
         sodipodi:cx="28.3125"
         id="path2300"
         style="opacity:1;color:#000000;fill:#ffffff;fill-opacity:1;fill-rule:nonzero;stroke:none;stroke-width:1;stroke-linecap:butt;stroke-linejoin:round;marker:none;marker-start:none;marker-mid:none;marker-end:none;stroke-miterlimit:4;stroke-dasharray:none;stroke-dashoffset:0;stroke-opacity:1;visibility:visible;display:inline;overflow:visible"
         sodipodi:type="arc" />
    </g>
    <g
       id="g5031"
       transform="translate(57.88153,-129.8383)">
      <path
         id="path4073"
         d="M 312.36009,372.26364 L 310.54759,378.73239 L 310.48509,379.88864 L 310.86009,385.07614 L 302.01634,386.26364 L 301.01634,381.13864 L 300.64134,380.04489 L 297.23509,374.26364 L 291.04759,375.91989 L 290.98509,382.60739 L 291.23509,383.76364 L 292.92259,388.70114 L 284.70384,392.10739 L 282.39134,387.41989 L 281.76634,386.45114 L 276.98509,381.73239 L 271.42259,384.95114 L 273.11009,391.45114 L 273.64134,392.48239 L 276.54759,396.79489 L 269.48509,402.23239 L 266.04759,398.29489 L 265.17259,397.51364 L 259.32884,394.23239 L 254.79759,398.73239 L 258.11009,404.57614 L 258.89134,405.45114 L 262.82884,408.88864 L 257.39134,415.95114 L 253.07884,413.04489 L 252.01634,412.51364 L 245.51634,410.82614 L 242.32884,416.38864 L 247.04759,421.16989 L 248.01634,421.79489 L 252.70384,424.10739 L 249.26634,432.32614 L 244.36009,430.63864 L 243.20384,430.41989 L 236.48509,430.48239 L 234.82884,436.63864 L 240.61009,440.04489 L 241.73509,440.41989 L 246.82884,441.41989 L 245.67259,450.26364 L 240.48509,449.91989 L 239.32884,449.95114 L 232.86009,451.76364 L 232.86009,458.16989 L 239.32884,459.95114 L 240.48509,460.01364 L 245.67259,459.66989 L 246.82884,468.51364 L 241.73509,469.51364 L 240.61009,469.85739 L 234.82884,473.26364 L 236.48509,479.45114 L 243.20384,479.51364 L 244.36009,479.26364 L 249.26634,477.57614 L 252.70384,485.82614 L 248.01634,488.10739 L 247.04759,488.76364 L 242.32884,493.54489 L 245.51634,499.07614 L 252.01634,497.38864 L 253.07884,496.85739 L 257.39134,493.98239 L 262.82884,501.04489 L 258.89134,504.45114 L 258.11009,505.32614 L 254.79759,511.16989 L 259.32884,515.70114 L 265.17259,512.38864 L 266.04759,511.60739 L 269.48509,507.70114 L 276.54759,513.10739 L 273.64134,517.45114 L 273.11009,518.48239 L 271.42259,524.98239 L 276.98509,528.16989 L 281.76634,523.48239 L 282.39134,522.48239 L 284.70384,517.82614 L 292.92259,521.23239 L 291.23509,526.16989 L 290.98509,527.29489 L 291.04759,534.01364 L 297.23509,535.66989 L 300.64134,529.88864 L 301.01634,528.76364 L 302.01634,523.66989 L 310.86009,524.82614 L 310.48509,530.01364 L 310.54759,531.20114 L 312.36009,537.66989 L 318.73509,537.66989 L 320.54759,531.20114 L 320.61009,530.01364 L 320.26634,524.82614 L 329.07884,523.66989 L 330.11009,528.76364 L 330.45384,529.88864 L 333.86009,535.66989 L 340.04759,534.01364 L 340.11009,527.29489 L 339.86009,526.16989 L 338.17259,521.23239 L 346.42259,517.82614 L 348.70384,522.48239 L 349.32884,523.48239 L 354.14134,528.16989 L 359.67259,524.98239 L 357.98509,518.48239 L 357.45384,517.45114 L 354.54759,513.10739 L 361.64134,507.70114 L 365.04759,511.60739 L 365.92259,512.38864 L 371.76634,515.70114 L 376.29759,511.16989 L 372.98509,505.32614 L 372.20384,504.45114 L 368.29759,501.04489 L 373.70384,493.98239 L 378.01634,496.85739 L 379.07884,497.38864 L 385.57884,499.07614 L 388.76634,493.54489 L 384.07884,488.76364 L 383.07884,488.10739 L 378.42259,485.82614 L 381.82884,477.57614 L 386.73509,479.26364 L 387.89134,479.51364 L 394.61009,479.45114 L 396.26634,473.26364 L 390.48509,469.85739 L 389.36009,469.51364 L 384.26634,468.51364 L 385.42259,459.66989 L 390.61009,460.01364 L 391.76634,459.95114 L 398.23509,458.16989 L 398.23509,451.76364 L 391.76634,449.95114 L 390.61009,449.91989 L 385.42259,450.26364 L 384.26634,441.41989 L 389.36009,440.41989 L 390.48509,440.04489 L 396.26634,436.63864 L 394.61009,430.48239 L 387.89134,430.41989 L 386.73509,430.63864 L 381.82884,432.32614 L 378.42259,424.10739 L 383.07884,421.79489 L 384.07884,421.16989 L 388.76634,416.38864 L 385.57884,410.82614 L 379.07884,412.51364 L 378.01634,413.04489 L 373.70384,415.95114 L 368.29759,408.88864 L 372.20384,405.45114 L 372.98509,404.57614 L 376.29759,398.73239 L 371.76634,394.23239 L 365.92259,397.51364 L 365.04759,398.29489 L 361.64134,402.23239 L 354.54759,396.79489 L 357.45384,392.48239 L 357.98509,391.45114 L 359.67259,384.95114 L 354.14134,381.73239 L 349.32884,386.45114 L 348.70384,387.41989 L 346.42259,392.10739 L 338.17259,388.70114 L 339.86009,383.76364 L 340.11009,382.60739 L 340.04759,375.91989 L 333.86009,374.26364 L 330.45384,380.04489 L 330.11009,381.13864 L 329.07884,386.26364 L 320.26634,385.07614 L 320.61009,379.88864 L 320.54759,378.73239 L 318.73509,372.26364 L 312.36009,372.26364 z M 307.98509,401.70114 L 307.98509,430.32614 C 299.84544,432.82511 293.42228,439.2493 290.92259,447.38864 L 262.29759,447.38864 C 265.62853,423.74651 284.34295,405.03207 307.98509,401.70114 z M 323.14134,401.73239 C 346.76715,405.07669 365.46828,423.75803 368.79759,447.38864 L 340.17259,447.38864 C 337.67585,439.25889 331.26736,432.83141 323.14134,430.32614 L 323.14134,401.73239 z M 315.54759,444.35739 C 321.40243,444.35739 326.14134,449.0963 326.14134,454.95114 C 326.14134,460.80598 321.40243,465.57614 315.54759,465.57614 C 309.69275,465.57614 304.95384,460.83723 304.95384,454.98239 C 304.95384,449.12755 309.69275,444.35739 315.54759,444.35739 z M 262.32884,462.54489 L 290.92259,462.54489 C 293.42228,470.68423 299.84544,477.10842 307.98509,479.60739 L 307.98509,508.23239 C 284.35447,504.89901 265.67314,486.1748 262.32884,462.54489 z M 340.17259,462.54489 L 368.76634,462.54489 C 365.42367,486.16328 346.75562,504.85438 323.14134,508.20114 L 323.14134,479.60739 C 331.26736,477.10212 337.67585,470.67464 340.17259,462.54489 z"
         style="fill:#7c7c7c;fill-opacity:1;stroke:#000000" />
      <path
         id="path3873"
         d="M 197.18624,447.42479 L 191.59249,448.20604 L 190.40499,455.08104 L 190.49874,455.64354 L 192.06124,461.20604 L 184.52999,464.45604 L 181.59249,459.45604 L 181.24874,458.98729 L 175.43624,455.14354 L 170.99874,458.64354 L 173.40499,465.17479 L 173.77999,465.64354 L 177.93624,469.64354 L 173.02999,476.23729 L 167.96749,473.39354 L 167.43624,473.17479 L 160.49874,472.73729 L 158.40499,477.95604 L 163.74874,482.42479 L 164.27999,482.64354 L 169.90499,484.04979 L 168.93624,492.17479 L 163.15499,492.26854 L 162.56124,492.33104 L 156.34249,495.42479 L 157.15499,501.01854 L 163.99874,502.20604 L 164.56124,502.11229 L 170.15499,500.51854 L 173.37374,508.04979 L 168.40499,511.01854 L 167.93624,511.36229 L 164.09249,517.14354 L 167.59249,521.58104 L 174.12374,519.17479 L 174.56124,518.83104 L 178.59249,514.67479 L 185.15499,519.58104 L 182.31124,524.61229 L 182.09249,525.14354 L 181.65499,532.08104 L 186.90499,534.17479 L 191.37374,528.86229 L 191.56124,528.29979 L 192.96749,522.70604 L 201.12374,523.64354 L 201.18624,529.45604 L 201.24874,530.01854 L 204.34249,536.23729 L 209.93624,535.42479 L 211.12374,528.58104 L 211.02999,528.01854 L 209.46749,522.45604 L 216.99874,519.20604 L 219.93624,524.20604 L 220.27999,524.64354 L 226.09249,528.51854 L 230.49874,525.01854 L 228.12374,518.48729 L 227.74874,518.01854 L 223.59249,513.98729 L 228.49874,507.42479 L 233.56124,510.26854 L 234.09249,510.48729 L 241.02999,510.92479 L 243.12374,505.67479 L 237.77999,501.23729 L 237.24874,501.01854 L 231.62374,499.61229 L 232.59249,491.45604 L 238.37374,491.39354 L 238.96749,491.33104 L 245.18624,488.23729 L 244.37374,482.64354 L 237.52999,481.45604 L 236.93624,481.54979 L 231.37374,483.14354 L 228.15499,475.61229 L 233.12374,472.64354 L 233.59249,472.29979 L 237.43624,466.51854 L 233.93624,462.08104 L 227.40499,464.45604 L 226.96749,464.83104 L 222.93624,468.98729 L 216.37374,464.08104 L 219.21749,459.04979 L 219.43624,458.51854 L 219.87374,451.58104 L 214.62374,449.48729 L 210.15499,454.79979 L 209.96749,455.36229 L 208.52999,460.95604 L 200.40499,459.98729 L 200.34249,454.20604 L 200.27999,453.64354 L 197.18624,447.42479 z M 200.74874,481.73729 C 206.32478,481.7373 210.87374,486.255 210.87374,491.83104 C 210.87375,497.40705 206.32478,501.92479 200.74874,501.92479 C 195.1727,501.92478 190.65499,497.40708 190.65499,491.83104 C 190.655,486.25497 195.1727,481.73729 200.74874,481.73729 z"
         style="fill:#7c7c7c;fill-opacity:1;stroke:#000000;stroke-width:1" />
      <path
         id="path4117"
         d="M 463.73977,470.97418 L 458.13103,474.8728 L 457.6482,475.48699 L 454.65271,480.20767 L 446.97653,476.31983 L 449.0261,471.13379 L 449.22462,470.3756 L 449.0736,463.53916 L 443.31527,461.91421 L 439.62097,467.67554 L 439.39788,468.41441 L 438.41012,473.9184 L 429.87311,473.24933 L 429.76215,467.67662 L 429.64825,466.91134 L 426.89592,460.65346 L 420.94746,461.34354 L 419.75053,468.07434 L 419.82055,468.84488 L 421.03378,474.3301 L 412.87157,476.97665 L 410.65604,471.85626 L 410.2648,471.19096 L 405.31461,466.46481 L 400.10278,469.40345 L 401.54565,476.06293 L 401.91758,476.75281 L 405.13895,481.35216 L 398.6171,486.91797 L 394.59169,483.03804 L 393.95818,482.57979 L 387.60681,480.09114 L 383.89873,484.80814 L 387.79735,490.41688 L 388.39222,490.92428 L 393.11291,493.91977 L 389.24438,501.57138 L 384.03377,499.5025 L 383.27558,499.30398 L 376.46371,499.47431 L 374.81944,505.25721 L 380.58077,508.95151 L 381.33896,509.15003 L 386.81838,510.11848 L 386.17388,518.6748 L 380.57661,518.76645 L 379.81132,518.88035 L 373.55345,521.63268 L 374.26809,527.60045 L 380.99889,528.79738 L 381.76943,528.72736 L 387.23008,527.49481 L 389.87664,535.65703 L 384.78081,537.89187 L 384.09619,538.30768 L 379.38936,543.2333 L 382.30868,548.4697 L 388.98748,547.00226 L 389.67736,546.63033 L 394.23283,543.41422 L 399.84252,549.93081 L 395.96259,553.95622 L 395.47977,554.57042 L 393.01569,560.9411 L 397.73269,564.64918 L 403.34143,560.75056 L 403.82426,560.13637 L 406.81975,555.41569 L 414.45205,559.30879 L 412.42705,564.51414 L 412.22853,565.27233 L 412.37955,572.10877 L 418.15719,573.70915 L 421.83218,567.97239 L 422.07458,567.20895 L 423.01846,561.71022 L 431.59935,562.37403 L 431.691,567.9713 L 431.8049,568.73659 L 434.55723,574.99446 L 440.50043,574.26051 L 441.72193,567.54902 L 441.62734,566.75917 L 440.41936,561.31783 L 448.55701,558.65196 L 450.81642,563.7671 L 451.18835,564.45697 L 456.13853,569.18312 L 461.36968,566.21991 L 459.90224,559.54111 L 459.55488,558.87055 L 456.3142,554.29577 L 462.83604,548.72996 L 466.86146,552.60988 L 467.49497,553.06814 L 473.86565,555.53222 L 477.57373,550.81522 L 473.6558,545.23104 L 473.06092,544.72365 L 468.34024,541.72816 L 472.20877,534.07655 L 477.43869,536.12086 L 478.17231,536.30007 L 485.00875,536.14905 L 486.6337,530.39072 L 480.87237,526.69642 L 480.1335,526.47333 L 474.6102,525.51013 L 475.27927,516.97313 L 480.87129,516.8376 L 481.66114,516.74301 L 487.89445,513.97137 L 487.18506,508.04748 L 480.45425,506.85055 L 479.68372,506.92057 L 474.24238,508.12855 L 471.55194,499.97159 L 476.69165,497.73149 L 477.35695,497.34025 L 482.0831,492.39006 L 479.14446,487.17823 L 472.46566,488.64567 L 471.77579,489.01759 L 467.19575,492.2144 L 461.62994,485.69255 L 465.50987,481.66714 L 465.99269,481.05294 L 468.45677,474.68226 L 463.73977,470.97418 z M 451.16935,491.81905 C 465.52596,503.10496 468.03933,523.9075 456.75343,538.26411 C 445.46753,552.6207 424.64041,555.11478 410.2838,543.82888 C 397.76561,533.9882 394.28299,516.89341 401.07387,503.15921 L 413.0629,512.58393 C 410.98719,519.6114 413.23271,527.50436 419.34158,532.30662 C 427.34183,538.59572 438.94209,537.20658 445.23117,529.20633 C 451.52027,521.20608 450.13112,509.60584 442.13088,503.31674 C 435.73124,498.2859 427.03981,498.19688 420.5951,502.44614 L 408.7289,493.11798 C 420.46492,482.64813 438.37467,481.761 451.16935,491.81905 z M 435.40997,511.8663 C 438.69772,514.45088 439.26617,519.19765 436.68161,522.48542 C 434.09706,525.77319 429.35026,526.34162 426.06249,523.75706 C 422.77474,521.17248 422.20629,516.42571 424.79085,513.13794 C 427.3754,509.85017 432.1222,509.28174 435.40997,511.8663 z"
         style="fill:#7c7c7c;fill-opacity:1;stroke:#000000;stroke-opacity:1" />
    </g>
    <path
       style="opacity:1;fill:#ffffff;fill-opacity:1;fill-rule:evenodd;stroke:#000000;stroke-width:3;stroke-linecap:round;stroke-linejoin:miter;stroke-miterlimit:4;stroke-dasharray:none;stroke-opacity:1"
       d="M -28.209821,235.57647 C -49.024661,235.57647 -67.229301,244.05457 -77.116071,256.67022 C -79.339091,256.44198 -81.62074,256.29522 -83.92857,256.29522 C -110.93714,256.29522 -132.83483,272.47754 -132.83482,292.38897 C -132.83482,300.40101 -129.274,307.77517 -123.27232,313.76397 C -145.41086,318.39048 -161.42856,331.70938 -161.42857,347.38897 C -161.42857,366.90611 -136.61071,382.73271 -106.05357,382.73272 C -92.12685,382.73272 -79.410811,379.443 -69.678571,374.01397 C -59.542251,378.65206 -47.819521,381.29522 -35.334821,381.29522 C -29.261001,381.29522 -23.390051,380.69203 -17.772321,379.51397 C -10.753731,391.99555 3.998999,400.57647 21.071429,400.57647 C 44.925719,400.57647 64.290159,383.77647 64.290179,363.07647 C 64.290179,357.21555 62.744289,351.67554 59.977679,346.73272 C 82.670899,339.42408 98.571409,322.4797 98.571429,302.73272 C 98.571429,276.31558 70.100369,254.88897 35.008929,254.88897 C 29.951879,254.88897 25.038419,255.32896 20.321429,256.17022 C 10.349719,243.82853 -7.668341,235.57647 -28.209821,235.57647 z"
       id="path2391" />
    <g
       id="g3195"
       transform="matrix(0.9545846,0,0,0.7822178,-4.6760809,324.65396)">
      <rect
         y="332.35901"
         x="319.99216"
         height="160.06239"
         width="159.9429"
         id="rect2385"
         style="fill:url(#linearGradient3167);fill-opacity:1;fill-rule:evenodd;stroke:none;stroke-width:1.0577985;stroke-linejoin:miter;stroke-miterlimit:4;stroke-dasharray:none;stroke-dashoffset:0;stroke-opacity:1" />
      <path
         transform="matrix(0.991115,0,0,1.0758751,-2.8174422,-28.291984)"
         d="M 487.14285,335.21933 A 80.714294,18.57143 0 1 1 325.71426,335.21933 A 80.714294,18.57143 0 1 1 487.14285,335.21933 z"
         sodipodi:ry="18.57143"
         sodipodi:rx="80.714294"
         sodipodi:cy="335.21933"
         sodipodi:cx="406.42856"
         id="path2383"
         style="fill:#7d7d7d;fill-opacity:1;fill-rule:evenodd;stroke:none;stroke-width:1;stroke-linejoin:miter;stroke-miterlimit:4;stroke-dasharray:none;stroke-dashoffset:0;stroke-opacity:1"
         sodipodi:type="arc" />
      <path
         sodipodi:type="arc"
         style="fill:url(#linearGradient3177);fill-opacity:1;fill-rule:evenodd;stroke:none;stroke-width:1;stroke-linejoin:miter;stroke-miterlimit:4;stroke-dasharray:none;stroke-dashoffset:0;stroke-opacity:1"
         id="path2389"
         sodipodi:cx="406.42856"
         sodipodi:cy="335.21933"
         sodipodi:rx="80.714294"
         sodipodi:ry="18.57143"
         d="M 487.14285,335.21933 A 80.714294,18.57143 0 1 1 325.71426,335.21933 A 80.714294,18.57143 0 1 1 487.14285,335.21933 z"
         transform="matrix(0.9911572,0,0,1.0759345,-2.8351373,131.68815)" />
      <path
         id="path3181"
         d="M 320,332.36218 C 319.98458,332.52349 319.96875,332.69995 319.96875,332.86218 C 319.96875,343.89144 355.81031,352.83094 399.96875,352.83093 C 444.12718,352.83093 479.96876,343.89144 479.96875,332.86218 C 479.96875,332.69995 479.95292,332.52349 479.9375,332.36218 C 478.84165,343.16404 443.4372,351.86218 399.96875,351.86218 C 356.50031,351.86218 321.09585,343.16404 320,332.36218 z"
         style="fill:#ffffff;fill-opacity:1;fill-rule:evenodd;stroke:none;stroke-width:1;stroke-linejoin:miter;stroke-miterlimit:4;stroke-dasharray:none;stroke-dashoffset:0;stroke-opacity:1;filter:url(#filter3189)" />
      <path
         style="opacity:0.75;fill:#ffffff;fill-opacity:1;fill-rule:evenodd;stroke:none;stroke-width:1;stroke-linejoin:miter;stroke-miterlimit:4;stroke-dasharray:none;stroke-dashoffset:0;stroke-opacity:1;filter:url(#filter3189)"
         d="M 320,492.36218 C 319.98458,492.52349 319.96875,492.69995 319.96875,492.86218 C 319.96875,503.89144 355.81031,512.83094 399.96875,512.83093 C 444.12718,512.83093 479.96876,503.89144 479.96875,492.86218 C 479.96875,492.69995 479.95292,492.52349 479.9375,492.36218 C 478.84165,503.16404 443.4372,511.86218 399.96875,511.86218 C 356.50031,511.86218 321.09585,503.16404 320,492.36218 z"
         id="path3193" />
    </g>
    <text
       xml:space="preserve"
       style="font-size:23.28862762px;font-style:normal;font-variant:normal;font-weight:normal;font-stretch:normal;fill:#000000;fill-opacity:1;stroke:none;stroke-width:1px;stroke-linecap:butt;stroke-linejoin:miter;stroke-opacity:1;font-family:Arial;-inkscape-font-specification:Arial"
       x="348.37747"
       y="669.8075"
       id="text3294"><tspan
         sodipodi:role="line"
         id="tspan3296"
         x="348.37747"
         y="669.8075"
         style="font-size:40.75509644px">DB</tspan></text>
    <text
       xml:space="preserve"
       style="font-size:32px;font-style:normal;font-variant:normal;font-weight:normal;font-stretch:normal;fill:#000000;fill-opacity:1;stroke:none;stroke-width:1px;stroke-linecap:butt;stroke-linejoin:miter;stroke-opacity:1;font-family:Arial;-inkscape-font-specification:Arial"
       x="-94.285713"
       y="323.79074"
       id="text5125"><tspan
         sodipodi:role="line"
         id="tspan5127"
         x="-94.285713"
         y="323.79074">Ontologie</tspan></text>
    <text
       xml:space="preserve"
       style="font-size:32px;font-style:normal;font-variant:normal;font-weight:normal;font-stretch:normal;fill:#000000;fill-opacity:1;stroke:none;stroke-width:1px;stroke-linecap:butt;stroke-linejoin:miter;stroke-opacity:1;font-family:Arial;-inkscape-font-specification:Arial"
       x="342.5"
       y="448.43362"
       id="text5129"><tspan
         sodipodi:role="line"
         id="tspan5131"
         x="342.5"
         y="448.43362">u2r3</tspan></text>
    <text
       xml:space="preserve"
       style="font-size:32px;font-style:normal;font-variant:normal;font-weight:normal;font-stretch:normal;fill:#000000;fill-opacity:1;stroke:none;stroke-width:1px;stroke-linecap:butt;stroke-linejoin:miter;stroke-opacity:1;font-family:Arial;-inkscape-font-specification:Arial"
       x="677.14282"
       y="435.21933"
       id="text5133"><tspan
         sodipodi:role="line"
         id="tspan5135"
         x="677.14282"
         y="435.21933">Anwendung</tspan></text>
    <path
       style="fill:none;fill-rule:evenodd;stroke:#000000;stroke-width:3;stroke-linecap:butt;stroke-linejoin:miter;marker-end:url(#Arrow1Lend);stroke-miterlimit:4;stroke-dasharray:none;stroke-opacity:1"
       d="M 85.714286,345.79075 L 142.85714,345.79075 L 202.14285,345.43361"
       id="path5143"
       sodipodi:nodetypes="ccc" />
    <path
       style="fill:none;fill-rule:evenodd;stroke:#000000;stroke-width:3;stroke-linecap:butt;stroke-linejoin:miter;marker-start:url(#Arrow1Lstart);marker-mid:url(#Arrow1Lend);stroke-miterlimit:4;stroke-dasharray:none;stroke-opacity:1"
       d="M 562.0896,324.88169 C 656.37532,324.88169 656.37532,324.88169 656.37532,324.88169"
       id="path5153" />
    <path
       style="fill:none;fill-rule:evenodd;stroke:#000000;stroke-width:3;stroke-linecap:square;stroke-linejoin:miter;marker-start:url(#Arrow1Lstart);marker-mid:url(#Arrow1Lend);stroke-miterlimit:4;stroke-dasharray:none;stroke-opacity:1"
       d="M 313.92857,438.07647 C 313.92857,509.50504 313.92857,564.14789 313.92857,564.14789"
       id="path5155"
       sodipodi:nodetypes="cc" />
    <path
       style="fill:none;fill-rule:evenodd;stroke:#000000;stroke-width:3;stroke-linecap:square;stroke-linejoin:miter;marker-start:url(#Arrow1Lstart);marker-mid:url(#Arrow1Lend);stroke-miterlimit:4;stroke-dasharray:none;stroke-opacity:1"
       d="M 432.49999,558.25504 C 432.49999,486.82647 432.49999,432.18362 432.49999,432.18362"
       id="path8530"
       sodipodi:nodetypes="cc" />
    <path
       style="fill:none;fill-rule:evenodd;stroke:#000000;stroke-width:3;stroke-linecap:butt;stroke-linejoin:miter;marker-start:url(#Arrow1Lstart);marker-mid:url(#Arrow1Lend);stroke-miterlimit:4;stroke-dasharray:none;stroke-opacity:1"
       d="M 656.72956,367.05549 C 562.44384,367.05549 562.44384,367.05549 562.44384,367.05549"
       id="path8532" />
  </g>
</svg>
